:FULLY-SPECIFIED
:FORCE-ALL-JOINTS-BE-3DOF
:DEGREES
170
root 6.49572 16.092 -25.6577 3.83302 29.1861 1.38585
lfemur -25.9225 30.7093 -15.8913
ltibia 42.0154 0 0
lfoot -9.13791 8.52109 0
ltoes 8.10807 0 0
rfemur -20.2097 -3.58523 -5.12649
rtibia 58.9274 0 0
rfoot 6.36342 -26.0914 0
rtoes 42.5423 0 0
lowerback 1.25234 -4.71478 -1.23482
upperback 0.0409909 -6.31703 -2.60522
thorax -0.798955 -3.15446 -1.8471
lowerneck -9.47237 -7.4287 -1.3948
upperneck 1.81995 -9.99788 5.32524
head 2.59823 -4.81313 1.42074
lclavicle -9.04885e-14 3.97569e-15 0
lhumerus -50.0645 -41.6666 115.595
lradius 52.2246 0 0
lwrist 15.2089 0 0
lhand 37.4415 28.4224 0
lfingers 7.12502 0 0
lthumb 60.2401 41.9293 0
rclavicle -9.04885e-14 3.97569e-15 0
rhumerus -48.8792 -11.9296 -81.1136
rradius 89.7425 0 0
rwrist -4.00311 0 0
rhand -40.7905 -49.8359 0
rfingers 7.12502 0 0
rthumb -13.7263 -439.291 0
171
root 6.43153 16.0923 -25.634 3.93023 28.3618 1.3553
lfemur -25.4102 29.2592 -14.2431
ltibia 41.9331 0 0
lfoot -10.4768 5.95509 0
ltoes 2.87333 0 0
rfemur -19.3584 -3.82393 -5.17606
rtibia 56.5516 0 0
rfoot 4.08706 -26.3448 0
rtoes 42.74 0 0
lowerback 0.926579 -4.38191 -1.05303
upperback 0.0214367 -5.86429 -2.89224
thorax -0.662867 -2.92911 -2.27251
lowerneck -9.53473 -7.43267 -1.06425
upperneck 1.95556 -10.0508 5.3482
head 2.63854 -4.83135 1.36501
lclavicle -8.22803e-14 4.77083e-15 0
lhumerus -50.5564 -41.9466 115.692
lradius 52.1714 0 0
lwrist 15.1026 0 0
lhand 37.7782 28.3977 0
lfingers 7.12502 0 0
lthumb 60.5253 41.584 0
rclavicle -8.22803e-14 4.77083e-15 0
rhumerus -49.3073 -9.05595 -82.6153
rradius 90.3222 0 0
rwrist -3.51688 0 0
rhand -38.3387 -46.5591 0
rfingers 7.12502 0 0
rthumb -11.3609 -436.118 0
172
root 6.36735 16.0926 -25.6102 4.02744 27.5374 1.32475
lfemur -24.8978 27.809 -12.5949
ltibia 41.8509 0 0
lfoot -11.8157 3.38908 0
ltoes -2.3614 0 0
rfemur -18.507 -4.06263 -5.22562
rtibia 54.1759 0 0
rfoot 1.81069 -26.5983 0
rtoes 42.9377 0 0
lowerback 0.600813 -4.04905 -0.871242
upperback 0.0018826 -5.41155 -3.17925
thorax -0.52678 -2.70376 -2.69792
lowerneck -9.59708 -7.43665 -0.733699
upperneck 2.09118 -10.1038 5.37117
head 2.67885 -4.84956 1.30929
lclavicle -7.40721e-14 5.56597e-15 0
lhumerus -51.0484 -42.2267 115.788
lradius 52.1181 0 0
lwrist 14.9962 0 0
lhand 38.1149 28.373 0
lfingers 7.12502 0 0
lthumb 60.8104 41.2388 0
rclavicle -7.40721e-14 5.56597e-15 0
rhumerus -49.7354 -6.18228 -84.1171
rradius 90.9019 0 0
rwrist -3.03066 0 0
rhand -35.8869 -43.2823 0
rfingers 7.12502 0 0
rthumb -8.99544 -432.944 0
173
root 6.30317 16.0929 -25.5865 4.12465 26.7131 1.29419
lfemur -24.3854 26.3589 -10.9467
ltibia 41.7686 0 0
lfoot -13.1545 0.823073 0
ltoes -7.59613 0 0
rfemur -17.6557 -4.30132 -5.27518
rtibia 51.8002 0 0
rfoot -0.465667 -26.8518 0
rtoes 43.1353 0 0
lowerback 0.275047 -3.71619 -0.689452
upperback -0.0176715 -4.9588 -3.46626
thorax -0.390693 -2.47841 -3.12334
lowerneck -9.65943 -7.44063 -0.403148
upperneck 2.2268 -10.1568 5.39414
head 2.71917 -4.86777 1.25357
lclavicle -6.5864e-14 6.36111e-15 0
lhumerus -51.5404 -42.5068 115.884
lradius 52.0649 0 0
lwrist 14.8899 0 0
lhand 38.4515 28.3484 0
lfingers 7.12502 0 0
lthumb 61.0955 40.8935 0
rclavicle -6.5864e-14 6.36111e-15 0
rhumerus -50.1635 -3.30861 -85.6189
rradius 91.4816 0 0
rwrist -2.54444 0 0
rhand -33.435 -40.0056 0
rfingers 7.12502 0 0
rthumb -6.63001 -429.77 0
174
root 6.23898 16.0932 -25.5628 4.22186 25.8888 1.26364
lfemur -23.8731 24.9088 -9.29853
ltibia 41.6863 0 0
lfoot -14.4934 -1.74293 0
ltoes -12.8309 0 0
rfemur -16.8044 -4.54002 -5.32475
rtibia 49.4244 0 0
rfoot -2.74203 -27.1052 0
rtoes 43.333 0 0
lowerback -0.0507183 -3.38332 -0.507662
upperback -0.0372257 -4.50605 -3.75328
thorax -0.254605 -2.25306 -3.54875
lowerneck -9.72179 -7.4446 -0.0725975
upperneck 2.36241 -10.2097 5.4171
head 2.75948 -4.88599 1.19784
lclavicle -5.76558e-14 7.15625e-15 0
lhumerus -52.0323 -42.7868 115.981
lradius 52.0117 0 0
lwrist 14.7836 0 0
lhand 38.7882 28.3237 0
lfingers 7.12502 0 0
lthumb 61.3807 40.5483 0
rclavicle -5.76558e-14 7.15625e-15 0
rhumerus -50.5916 -0.434933 -87.1206
rradius 92.0613 0 0
rwrist -2.05821 0 0
rhand -30.9832 -36.7288 0
rfingers 7.12502 0 0
rthumb -4.26459 -426.597 0
175
root 6.1748 16.0935 -25.5391 4.31907 25.0645 1.23308
lfemur -23.3607 23.4587 -7.65034
ltibia 41.604 0 0
lfoot -15.8323 -4.30894 0
ltoes -18.0656 0 0
rfemur -15.9531 -4.77871 -5.37431
rtibia 47.0487 0 0
rfoot -5.01839 -27.3587 0
rtoes 43.5307 0 0
lowerback -0.376484 -3.05046 -0.325873
upperback -0.0567798 -4.05331 -4.04029
thorax -0.118518 -2.02771 -3.97416
lowerneck -9.78414 -7.44858 0.257953
upperneck 2.49803 -10.2627 5.44007
head 2.79979 -4.9042 1.14212
lclavicle -4.94477e-14 7.95139e-15 0
lhumerus -52.5243 -43.0669 116.077
lradius 51.9585 0 0
lwrist 14.6773 0 0
lhand 39.1248 28.2991 0
lfingers 7.12502 0 0
lthumb 61.6658 40.203 0
rclavicle -4.94477e-14 7.95139e-15 0
rhumerus -51.0197 2.43874 -88.6224
rradius 92.641 0 0
rwrist -1.57199 0 0
rhand -28.5314 -33.452 0
rfingers 7.12502 0 0
rthumb -1.89917 -423.423 0
176
root 6.0982 16.0816 -25.5146 4.55345 23.9138 1.39369
lfemur -21.7957 20.3763 -5.94103
ltibia 39.2873 0 0
lfoot -14.0544 -7.76678 0
ltoes -8.0224 0 0
rfemur -15.9561 -4.94742 -5.59238
rtibia 46.2237 0 0
rfoot -7.06476 -25.7262 0
rtoes 42.8621 0 0
lowerback -0.716118 -2.90171 -0.421865
upperback -0.0623302 -3.83909 -4.3016
thorax 0.0721433 -1.91859 -4.20819
lowerneck -10.0709 -7.17738 0.560599
upperneck 2.51064 -9.94594 5.40353
head 2.83203 -4.73933 1.08921
lclavicle -4.07757e-14 7.4213e-15 0
lhumerus -52.6618 -42.9555 115.682
lradius 52.1576 0 0
lwrist 15.6091 0 0
lhand 38.8119 28.8216 0
lfingers 7.12502 0 0
lthumb 61.401 41.0248 0
rclavicle -4.07757e-14 7.4213e-15 0
rhumerus -52.1207 5.73553 -89.4599
rradius 94.8733 0 0
rwrist -1.58831 0 0
rhand -21.3918 -29.6338 0
rfingers 7.12502 0 0
rthumb 4.95039 -418.853 0
177
root 6.02161 16.0698 -25.4901 4.78783 22.7631 1.55431
lfemur -20.2307 17.2939 -4.23172
ltibia 36.9707 0 0
lfoot -12.2764 -11.2246 0
ltoes 2.0208 0 0
rfemur -15.9592 -5.11613 -5.81045
rtibia 45.3987 0 0
rfoot -9.11113 -24.0936 0
rtoes 42.1936 0 0
lowerback -1.05575 -2.75295 -0.517857
upperback -0.0678805 -3.62488 -4.5629
thorax 0.262805 -1.80946 -4.44223
lowerneck -10.3576 -6.90618 0.863245
upperneck 2.52325 -9.62919 5.367
head 2.86427 -4.57446 1.0363
lclavicle -3.21037e-14 6.8912e-15 0
lhumerus -52.7993 -42.844 115.287
lradius 52.3566 0 0
lwrist 16.5408 0 0
lhand 38.499 29.3442 0
lfingers 7.12502 0 0
lthumb 61.1362 41.8466 0
rclavicle -3.21037e-14 6.8912e-15 0
rhumerus -53.2217 9.03233 -90.2974
rradius 97.1057 0 0
rwrist -1.60463 0 0
rhand -14.2522 -25.8156 0
rfingers 7.12502 0 0
rthumb 11.8 -414.284 0
178
root 5.94501 16.0579 -25.4656 5.02221 21.6124 1.71492
lfemur -18.6657 14.2114 -2.52241
ltibia 34.654 0 0
lfoot -10.4985 -14.6825 0
ltoes 12.064 0 0
rfemur -15.9622 -5.28484 -6.02853
rtibia 44.5737 0 0
rfoot -11.1575 -22.4611 0
rtoes 41.5251 0 0
lowerback -1.39539 -2.60419 -0.61385
upperback -0.0734309 -3.41066 -4.82421
thorax 0.453466 -1.70034 -4.67626
lowerneck -10.6444 -6.63499 1.16589
upperneck 2.53585 -9.31243 5.33046
head 2.8965 -4.4096 0.983383
lclavicle -2.34317e-14 6.36111e-15 0
lhumerus -52.9368 -42.7326 114.892
lradius 52.5557 0 0
lwrist 17.4726 0 0
lhand 38.1861 29.8667 0
lfingers 7.12502 0 0
lthumb 60.8714 42.6684 0
rclavicle -2.34317e-14 6.36111e-15 0
rhumerus -54.3227 12.3291 -91.135
rradius 99.338 0 0
rwrist -1.62095 0 0
rhand -7.1126 -21.9973 0
rfingers 7.12502 0 0
rthumb 18.6495 -409.714 0
179
root 5.86841 16.046 -25.4411 5.25659 20.4618 1.87553
lfemur -17.1007 11.129 -0.8131
ltibia 32.3373 0 0
lfoot -8.72053 -18.1403 0
ltoes 22.1072 0 0
rfemur -15.9653 -5.45354 -6.2466
rtibia 43.7487 0 0
rfoot -13.2039 -20.8286 0
rtoes 40.8565 0 0
lowerback -1.73502 -2.45544 -0.709842
upperback -0.0789812 -3.19644 -5.08552
thorax 0.644127 -1.59122 -4.9103
lowerneck -10.9311 -6.36379 1.46854
upperneck 2.54846 -8.99567 5.29392
head 2.92874 -4.24473 0.930471
lclavicle -1.47598e-14 5.83102e-15 0
lhumerus -53.0744 -42.6212 114.498
lradius 52.7548 0 0
lwrist 18.4044 0 0
lhand 37.8733 30.3893 0
lfingers 7.12502 0 0
lthumb 60.6066 43.4901 0
rclavicle -1.47598e-14 5.83102e-15 0
rhumerus -55.4237 15.6259 -91.9725
rradius 101.57 0 0
rwrist -1.63728 0 0
rhand 0.027 -18.1791 0
rfingers 7.12502 0 0
rthumb 25.4991 -405.145 0
180
root 5.79182 16.0342 -25.4166 5.49097 19.3111 2.03615
lfemur -15.5357 8.04658 0.89621
ltibia 30.0207 0 0
lfoot -6.94258 -21.5982 0
ltoes 32.1504 0 0
rfemur -15.9683 -5.62225 -6.46467
rtibia 42.9237 0 0
rfoot -15.2502 -19.196 0
rtoes 40.188 0 0
lowerback -2.07466 -2.30668 -0.805834
upperback -0.0845315 -2.98223 -5.34682
thorax 0.834789 -1.48209 -5.14433
lowerneck -11.2179 -6.09259 1.77118
upperneck 2.56107 -8.67892 5.25739
head 2.96098 -4.07986 0.877558
lclavicle -6.08778e-15 5.30092e-15 0
lhumerus -53.2119 -42.5097 114.103
lradius 52.9538 0 0
lwrist 19.3361 0 0
lhand 37.5604 30.9119 0
lfingers 7.12502 0 0
lthumb 60.3418 44.3119 0
rclavicle -6.08778e-15 5.30092e-15 0
rhumerus -56.5247 18.9227 -92.81
rradius 103.803 0 0
rwrist -1.6536 0 0
rhand 7.1666 -14.3609 0
rfingers 7.12502 0 0
rthumb 32.3486 -400.575 0
181
root 5.71522 16.0223 -25.3921 5.72535 18.1604 2.19676
lfemur -13.9707 4.96416 2.60552
ltibia 27.704 0 0
lfoot -5.16464 -25.056 0
ltoes 42.1936 0 0
rfemur -15.9714 -5.79096 -6.68274
rtibia 42.0987 0 0
rfoot -17.2966 -17.5635 0
rtoes 39.5194 0 0
lowerback -2.41429 -2.15793 -0.901826
upperback -0.0900819 -2.76801 -5.60813
thorax 1.02545 -1.37297 -5.37837
lowerneck -11.5046 -5.82139 2.07383
upperneck 2.57368 -8.36216 5.22085
head 2.99322 -3.91499 0.824646
lclavicle 2.5842e-15 4.77083e-15 0
lhumerus -53.3494 -42.3983 113.708
lradius 53.1529 0 0
lwrist 20.2679 0 0
lhand 37.2475 31.4344 0
lfingers 7.12502 0 0
lthumb 60.077 45.1337 0
rclavicle 2.5842e-15 4.77083e-15 0
rhumerus -57.6257 22.2195 -93.6475
rradius 106.035 0 0
rwrist -1.66992 0 0
rhand 14.3062 -10.5427 0
rfingers 7.12502 0 0
rthumb 39.1982 -396.006 0
182
root 5.65736 15.9733 -25.3781 5.82842 16.9779 2.46686
lfemur -12.1138 2.91808 2.97994
ltibia 25.0718 0 0
lfoot -6.80408 -24.9259 0
ltoes 44.1165 0 0
rfemur -16.3687 -6.37929 -7.08397
rtibia 42.0947 0 0
rfoot -18.4861 -15.0654 0
rtoes 41.0496 0 0
lowerback -2.5738 -2.19622 -0.981957
upperback -0.145474 -2.81176 -5.73417
thorax 1.05125 -1.39601 -5.47368
lowerneck -11.6876 -5.39445 2.07203
upperneck 2.75941 -7.80577 5.15198
head 3.08211 -3.63416 0.833657
lclavicle -5.05245e-15 7.95142e-16 0
lhumerus -53.4102 -42.2721 113.542
lradius 53.3329 0 0
lwrist 20.4666 0 0
lhand 37.45 31.7968 0
lfingers 7.12502 0 0
lthumb 60.249 45.3064 0
rclavicle -5.05245e-15 7.95142e-16 0
rhumerus -58.0232 25.4065 -91.4461
rradius 108.567 0 0
rwrist -2.78349 0 0
rhand 16.0376 -9.88296 0
rfingers 7.12502 0 0
rthumb 40.8119 -394.734 0
183
root 5.5995 15.9243 -25.3641 5.9315 15.7955 2.73696
lfemur -10.2569 0.871997 3.35437
ltibia 22.4395 0 0
lfoot -8.44353 -24.7957 0
ltoes 46.0395 0 0
rfemur -16.766 -6.96761 -7.48521
rtibia 42.0906 0 0
rfoot -19.6757 -12.5674 0
rtoes 42.5799 0 0
lowerback -2.73332 -2.2345 -1.06209
upperback -0.200866 -2.85551 -5.86022
thorax 1.07706 -1.41905 -5.569
lowerneck -11.8706 -4.96752 2.07023
upperneck 2.94513 -7.24938 5.0831
head 3.17101 -3.35332 0.842668
lclavicle -1.26891e-14 -3.18055e-15 0
lhumerus -53.4711 -42.1458 113.376
lradius 53.5129 0 0
lwrist 20.6652 0 0
lhand 37.6525 32.1592 0
lfingers 7.12502 0 0
lthumb 60.421 45.4791 0
rclavicle -1.26891e-14 -3.18055e-15 0
rhumerus -58.4206 28.5936 -89.2446
rradius 111.1 0 0
rwrist -3.89706 0 0
rhand 17.7689 -9.22322 0
rfingers 7.12502 0 0
rthumb 42.4256 -393.463 0
